<svg id="Layer_1" data-name="Layer 1" xmlns="http://www.w3.org/2000/svg" width="350" height="500" viewBox="0 0 350 500">
  <defs>
    <style>
      .cls-1 {
        fill: #4d392f;
      }

      .cls-2 {
        fill: #65738f;
      }

      .cls-3 {
        fill: #f9ddc7;
      }

      .cls-4 {
        fill: #3ba1c4;
      }

      .cls-5 {
        fill: #d3d1d1;
      }

      .cls-6 {
        fill: #fc9581;
      }

      .cls-7 {
        fill: #c12b2b;
      }

      .cls-8 {
        fill: #f4f4f4;
      }
    </style>
  </defs>
  <title>Mand 350x500</title>
  <path class="cls-1" d="M255.26,441.88s12.23-2.85,10.79,8.29c0,0,1,6.34-8.13,10.42,0,0-34.33,14.88-61.45-7,0,0-1.77-2.09-2.63-9.18Z"/>
  <path class="cls-2" d="M192.88,429.64s-.24,10.9,1,14.81c0,0,39.1,8,61.42-2.57l-1.68-22.32-3.36-21.13H224.06Z"/>
  <path class="cls-1" d="M107.46,438.76s-9,1.68-6.9,11.76c0,0,5.46,20.87,62.08,5.27,0,0,5.77-.72,3.49-14.39Z"/>
  <path class="cls-2" d="M104.58,419.56l2.88,19.2s30.14,10.8,58.67,2.64v-8.46Z"/>
  <path class="cls-3" d="M233.9,408.53c1.44,8.4,6.72,7.44,6.72,7.44,3.6-.24,7.68-13.92,7.68-13.92.48,3.84-5.28,22.79-5.28,22.79,1.92,8.88,11.28,3.84,11.28,3.84,6.71,5.52,10.79-1.2,10.79-1.2,2.64,6,7.75,0,7.75,0a181.39,181.39,0,0,0,9.09-29.05c-14.61-3.16-28.75-7.15-43.29-8.48Z"/>
  <path class="cls-4" d="M276.61,306.56,260,316.16,258.86,333l-12,24.71L238.64,390c14.54,1.33,28.68,5.32,43.29,8.48C293.74,345.32,276.61,306.56,276.61,306.56Z"/>
  <path class="cls-4" d="M65.47,365.1a123.68,123.68,0,0,0-4.72,26.46,130.67,130.67,0,0,0,19.93-4.47Z"/>
  <path class="cls-3" d="M80.68,387.09a130.67,130.67,0,0,1-19.93,4.47c-.73,10.54-.18,22.88,3.82,34.36a10.7,10.7,0,0,0,8.1,7s4.68-.36,4.68-5.94a5.2,5.2,0,0,0,5.72,4.14s3,1.26,5-4.68c0,0,1,3.24,3.72,2.7,0,0,5.57,1.44,8.81-13.31Z"/>
  <path class="cls-5" d="M249,262.82c4.31,3.7,10.22,3.17,15.9,2.95-5-4.14-9.42-8.28-11.46-10.24-.43-.39-.84-.78-1.21-1.17l1.21,1.17c8.49,7.67,29,14.85,29,14.85-1.44-22-11.52-23.76-11.52-23.76-7-3.79-18.57-5.85-29.4-7C241.24,247.91,242.23,256.68,249,262.82Z"/>
  <path class="cls-3" d="M254.06,257.35s20.15-18.71,36.95,10.08c0,0,19.19,29.27-22.08,49.91l-18.71-33Z"/>
  <path class="cls-5" d="M253.46,255.6c-.77-.74-1.2-1.17-1.2-1.17C252.62,254.82,253,255.21,253.46,255.6Z"/>
  <path class="cls-5" d="M280.33,276.21c-4.47-1.85-10.25-6.11-15.41-10.37-5.68.23-11.58.75-15.9-2.95-6.76-6.14-7.75-14.91-7.45-23.16-13.82-1.42-26.38-1.31-26.38-1.31L102.9,245.14a54.85,54.85,0,0,1-34.07,16.79C54,265.29,50.6,276.33,50.6,276.33,45.32,295.52,62.11,295,62.11,295c-5.75,1-15.83,17.76-15.83,17.76C34.76,356,61.63,345.43,61.63,345.43,66.43,450.52,183,435.16,183,435.16c72.46-7.68,69-81.22,69-81.22,36.11,23.76,21.47-31.67,21.47-31.67-.72-10.79-13.67-22.31-13.67-22.31,19.07,11.88,22.67,4,22.67,4C298,289.88,280.33,276.21,280.33,276.21Z"/>
  <path class="cls-3" d="M230.54,237.94a260.36,260.36,0,0,0,3.36,52.78s5.28,45.11-30.23,59.51c0,0-104.61,41.74-115.64-51.83,0,0,1.44-30.71,25-54.7Z"/>
  <path class="cls-5" d="M125.94,277.77s-25-6.24-39.35,4.8c0,0-15.84,10.55,19.67,10.55,0,0-16.79,14.88,3.84,25.91,0,0,16.8,6.24,34.07-11,0,0,26.87,31.67,48.47,5.76,0,0,7.19-9.12-6.72-17.76,0,0,28.31,9.6,21.59-8.16,0,0-4.8-7.67-38.39-5.27Z"/>
  <ellipse class="cls-6" cx="149.58" cy="275.62" rx="32.74" ry="27" transform="translate(-151.08 186.5) rotate(-45)"/>
  <path class="cls-7" d="M261.25,245.26,218.07,53.07s-7.92-36.7-31.67-8.27c0,0-9.36-1.08-75.58,200.46C110.82,245.26,165.52,227.26,261.25,245.26Z"/>
  <path class="cls-5" d="M102.9,193.55s-1.68-6.84,4.8-13.07,15.12-9.6,26.87-13c0,0,8-2.4,10.44,2.16,0,0,5.16,7.2-4,11.76,0,0-19.19,5.39-29,14.27C112,195.71,106.74,201,102.9,193.55Z"/>
  <path class="cls-5" d="M231.2,191.4s1-7-6.13-12.52-16-8-28.06-10.11c0,0-8.24-1.56-10.16,3.22,0,0-4.39,7.69,5.15,11.29,0,0,19.65,3.39,30.35,11.2C222.35,194.48,228.14,199.19,231.2,191.4Z"/>
  <g>
    <circle class="cls-8" cx="186.76" cy="240.58" r="30.95"/>
    <circle cx="186.76" cy="240.58" r="4.68"/>
  </g>
  <g>
    <circle class="cls-8" cx="129.53" cy="237.7" r="30.95"/>
    <circle cx="129.53" cy="237.7" r="4.68"/>
  </g>
</svg>
