<svg xmlns="http://www.w3.org/2000/svg" width="2800" height="500" viewBox="0 0 2800 500">
  <defs>
    <style>
      .cls-1 {
        fill: #ea8c2f;
      }

      .cls-2 {
        fill: #f2b336;
      }

      .cls-3 {
        fill: #efdf14;
      }

      .cls-4 {
        fill: #d9ed15;
      }

      .cls-5 {
        fill: #b2ea18;
      }

      .cls-6 {
        fill: #84e81a;
      }

      .cls-7 {
        fill: #15e577;
      }

      .cls-8 {
        fill: #17e2ad;
      }

      .cls-9 {
        fill: #4d392f;
      }

      .cls-10 {
        fill: #65738f;
      }

      .cls-11 {
        fill: #f6dbc8;
      }

      .cls-12 {
        fill: #a4c5d6;
      }

      .cls-13 {
        fill: #988a53;
      }

      .cls-14 {
        fill: #fff;
      }

      .cls-15 {
        fill: #ffdb39;
      }

      .cls-16 {
        fill: #d6b12d;
      }

      .cls-17 {
        fill: #bc9a26;
      }

      .cls-18, .cls-26 {
        fill: none;
        stroke-miterlimit: 10;
      }

      .cls-18 {
        stroke: #050505;
        stroke-width: 0.5px;
        opacity: 0.04;
      }

      .cls-19 {
        fill: #eaeaea;
      }

      .cls-20 {
        fill: #f9f9f9;
      }

      .cls-21 {
        fill: #93bccc;
      }

      .cls-22 {
        fill: #c12b2b;
      }

      .cls-23 {
        fill: #804337;
      }

      .cls-24 {
        fill: #542f17;
      }

      .cls-25 {
        fill: #e5867d;
      }

      .cls-26 {
        stroke: #020101;
        stroke-width: 3px;
      }

      .cls-27 {
        fill: #f5a8a0;
      }

      .cls-28 {
        fill: #ccabb8;
      }
    </style>
  </defs>
  <title>Spritesheet kvinde</title>
  <g id="Baggrund">
    <rect class="cls-1" width="350" height="500"/>
    <rect class="cls-2" x="350" width="350" height="500"/>
    <rect class="cls-3" x="700" width="350" height="500"/>
    <rect class="cls-4" x="1050" width="350" height="500"/>
    <rect class="cls-5" x="1401" width="350" height="500"/>
    <rect class="cls-6" x="1751" width="350" height="500"/>
    <rect class="cls-7" x="2101" width="350" height="500"/>
    <rect class="cls-8" x="2451" width="350" height="500"/>
  </g>
  <g id="Lag_3" data-name="Lag 3">
    <path class="cls-9" d="M187.26,354.69s-6.26-1.18-5.29,4.43c0,0-.37,3.23,4.35,5.1,0,0,17.7,6.79,31-4.85,0,0,.85-1.1,1.13-4.71Z"/>
    <path class="cls-10" d="M218.25,342.74s.53,9.47.06,12.89c0,0-19.5,7.79-31.19-.9l0-19.44.92-18.44,13.24-.57Z"/>
    <path class="cls-9" d="M141.93,354.57s-4.56.85-3.5,6c0,0,2.77,10.58,31.47,2.67,0,0,2.92-.36,1.76-7.29Z"/>
    <path class="cls-10" d="M140.47,344.84l1.46,9.73s15.27,5.47,29.73,1.34v-4.29Z"/>
    <path class="cls-9" d="M1229.9,351.53s-6.32-.81-5,4.74c0,0-.18,3.25,4.64,4.83,0,0,18.07,5.75,30.62-6.65,0,0,.79-1.15.86-4.77Z"/>
    <path class="cls-10" d="M1260.14,337.79s1.08,9.42.82,12.87c0,0-19,8.91-31.2.92l-1.11-19.4-.17-18.47,13.19-1.34Z"/>
    <path class="cls-9" d="M1188.26,350.65s-4.56.85-3.49,6c0,0,2.76,10.58,31.46,2.68,0,0,2.92-.37,1.77-7.3Z"/>
    <path class="cls-10" d="M1186.8,340.92l1.46,9.73s15.28,5.47,29.74,1.33V347.7Z"/>
    <path class="cls-9" d="M1548.35,346s-4.56.85-3.5,6c0,0,2.77,10.58,31.47,2.67,0,0,2.92-.36,1.76-7.29Z"/>
    <path class="cls-10" d="M1546.89,336.26l1.46,9.73s15.27,5.47,29.73,1.34V343Z"/>
    <path class="cls-9" d="M1568.17,347.45s-6.06-1.94-5.79,3.75c0,0-.77,3.16,3.68,5.6,0,0,16.73,8.92,31.32-1,0,0,1-1,1.71-4.53Z"/>
    <path class="cls-10" d="M1600.4,339.42s-.65,9.46-1.53,12.8c0,0-20.32,5.32-30.84-4.75l2.42-19.28,3.18-18.19,13.22,1.07Z"/>
    <path class="cls-9" d="M2250.35,346.8s-4.56.85-3.5,6c0,0,2.77,10.58,31.47,2.68,0,0,2.92-.37,1.76-7.3Z"/>
    <path class="cls-10" d="M2248.89,337.08l1.46,9.72s15.27,5.47,29.73,1.34v-4.29Z"/>
    <path class="cls-9" d="M2270.17,348.27s-6.06-1.95-5.79,3.74c0,0-.77,3.16,3.68,5.6,0,0,16.73,8.92,31.32-1,0,0,1-1,1.71-4.54Z"/>
    <path class="cls-10" d="M2302.4,340.24s-.65,9.45-1.53,12.79c0,0-20.32,5.33-30.84-4.74l2.42-19.28,3.18-18.2,13.22,1.08Z"/>
    <path class="cls-9" d="M1913.41,345.57s-4.35,1.63-2.42,6.47c0,0,4.56,9.95,31.46-2.8,0,0,2.81-.87.47-7.49Z"/>
    <path class="cls-10" d="M1910.29,336.24l3.12,9.33s16,2.75,29.51-3.82l-.74-4.23Z"/>
    <path class="cls-9" d="M1896.15,347.45s-6.06-1.94-5.79,3.75c0,0-.77,3.16,3.68,5.6,0,0,16.73,8.92,31.32-1,0,0,1-1,1.71-4.53Z"/>
    <path class="cls-10" d="M1928.38,339.42s-.65,9.46-1.53,12.8c0,0-20.32,5.32-30.84-4.75l2.42-19.28,3.18-18.19,13.22,1.07Z"/>
    <path class="cls-9" d="M539.12,350.69s-6.26-1.18-5.29,4.43c0,0-.37,3.24,4.35,5.11,0,0,17.7,6.78,31-4.86,0,0,.85-1.09,1.13-4.71Z"/>
    <path class="cls-10" d="M570.11,338.75s.53,9.46.06,12.88c0,0-19.5,7.8-31.19-.9l0-19.43.91-18.45,13.25-.56Z"/>
    <path class="cls-9" d="M483.42,345.15s-4.64.06-4.46,5.27c0,0,.93,10.9,30.55,8,0,0,3,.14,3-6.89Z"/>
    <path class="cls-10" d="M483.63,335.31l-.21,9.84s14.12,8,29.07,6.36l.73-4.22Z"/>
    <path class="cls-9" d="M2635,350s-6.26-1.18-5.29,4.43c0,0-.37,3.23,4.35,5.1,0,0,17.7,6.79,31-4.85,0,0,.85-1.1,1.14-4.71Z"/>
    <path class="cls-10" d="M2666,338s.53,9.46.07,12.89c0,0-19.51,7.79-31.2-.9l0-19.44.92-18.44,13.24-.57Z"/>
    <path class="cls-9" d="M2588.52,345.23s-4.64.07-4.46,5.28c0,0,.93,10.9,30.55,8,0,0,2.94.13,3-6.89Z"/>
    <path class="cls-10" d="M2588.73,335.4l-.21,9.83s14.12,8,29.07,6.37l.73-4.23Z"/>
    <path class="cls-9" d="M890.12,348.48s-6.26-1.17-5.29,4.44c0,0-.37,3.23,4.35,5.1,0,0,17.7,6.79,31-4.86,0,0,.85-1.09,1.13-4.7Z"/>
    <path class="cls-10" d="M921.11,336.54s.53,9.46.06,12.89c0,0-19.5,7.79-31.19-.91l0-19.43.91-18.44,13.25-.57Z"/>
    <path class="cls-9" d="M834.42,342.94s-4.64.06-4.46,5.28c0,0,.93,10.89,30.55,8,0,0,3,.14,3-6.89Z"/>
    <path class="cls-10" d="M834.63,333.1l-.21,9.84s14.12,8,29.07,6.36l.73-4.22Z"/>
  </g>
  <g id="Lag_5" data-name="Lag 5">
    <path class="cls-11" d="M147.1,236.63s-31.74,17.09-13.6,43.28c0,0,22.53,32,77.57,8.15l3.74-3.65-3-41.25Z"/>
    <path class="cls-11" d="M113.89,306.63s-18.22,6.27-22.26-2.87c0,0-2.73-1.65-3.67-13.4,0,0-12.38,0-11-8.75l8.29-2.67,17.35.68,4.79.19s3,5.91-6.15,9.15a18.11,18.11,0,0,0,1.88,3,20.69,20.69,0,0,0,7.25-1.61Z"/>
    <path class="cls-12" d="M123.72,284.84l-13.39,5.47s-.75,13.95,3.56,16.32l12.51-4.91Z"/>
    <ellipse class="cls-13" cx="87.22" cy="274.76" rx="7.62" ry="26.18" transform="translate(-190.74 351.16) rotate(-87.76)"/>
    <path class="cls-14" d="M71.86,238.71a2.65,2.65,0,0,1,.5-1.38l30.16,1.18-.21,5.52h0l-.74,18.8h-.05l-.43,11s-.33,2.13-2,2.16l-26.92-1.05s-1.5,0-1.77-2Z"/>
    <path class="cls-15" d="M100.38,240.89l-1.19,30.34a2,2,0,0,1-1.85,1.83l-5.55-.18,1.26-32.27Z"/>
    <rect class="cls-16" x="69.64" y="249.84" width="33.19" height="12.42" transform="translate(-172.99 332.21) rotate(-87.76)"/>
    <path class="cls-17" d="M79.38,272.39l-5.49-.21a1.74,1.74,0,0,1-1.28-1.52l1.27-32.6,6.83.27Z"/>
    <circle class="cls-14" cx="99.32" cy="238.67" r="3.11"/>
    <circle class="cls-14" cx="96.32" cy="235.83" r="3.11"/>
    <circle class="cls-14" cx="93.21" cy="235.7" r="3.11"/>
    <circle class="cls-14" cx="90.21" cy="232.92" r="3.11"/>
    <circle class="cls-14" cx="87.07" cy="234.8" r="3.11"/>
    <circle class="cls-14" cx="83.95" cy="234.96" r="3.11"/>
    <circle class="cls-14" cx="79.47" cy="233.72" r="3.11"/>
    <circle class="cls-14" cx="76.35" cy="233.86" r="3.11"/>
    <circle class="cls-14" cx="74.56" cy="235.42" r="3.11"/>
    <circle class="cls-14" cx="77.64" cy="236.28" r="3.11"/>
    <circle class="cls-14" cx="81.3" cy="236.14" r="3.11"/>
    <circle class="cls-14" cx="83.36" cy="238.05" r="3.11"/>
    <circle class="cls-14" cx="87.76" cy="238.22" r="3.11"/>
    <circle class="cls-14" cx="91.99" cy="238.77" r="3.11"/>
    <circle class="cls-14" cx="95.71" cy="240.71" r="3.11"/>
    <circle class="cls-14" cx="97.89" cy="239.45" r="3.11"/>
    <circle class="cls-18" cx="88.95" cy="250.28" r="3.73"/>
    <circle class="cls-18" cx="80.05" cy="255.01" r="2.4"/>
    <circle class="cls-18" cx="83.72" cy="261.88" r="1.29"/>
    <path class="cls-19" d="M191.1,339.67s3.46,4.53.58,6.68c0,0-2.71,1.36-4.41-3,0,0,0,4.13-3.07,3.61,0,0-3.31-.21-3.6-3.34,0,0-1,4.89-5.68,2.31,0,0-2.53-1.06-3-3.23,0,0-1,4.33-4.59,3.63,0,0-2.78-.2-3.57-3.93,0,0-2.15,4.07-5.81,2.33,0,0-1.84-.6-2.78-4,0,0-1.32,3.28-4,2.78,0,0-3.94-1.35-4.24-4a6.17,6.17,0,0,1-6.43,1.15s-2.51-.63-2.89-4.37c0,0-3.05,2.94-6,1.23,0,0-2.26-.22-3.44-3.86,0,0-8.26,3.59-9.89-2.43l2.33-6.36Z"/>
    <path class="cls-20" d="M120.58,325s24.06,20.22,70.52,14.71l.36-22.62s29.13,1.67,33.68-5.74l-6-3.76S214.58,309,200,309.67l-72.56-3.51Z"/>
    <path class="cls-12" d="M227.36,305.68l12.89,32.85s1.55,2.86-1,4c0,0-51.18,24.49-121.89-3.83,0,0-1.73-.92-.59-3.32l10.73-29.24S204.88,315.31,227.36,305.68Z"/>
    <path class="cls-21" d="M132.91,274.62s-19.4,11-12.23,26.68c0,0,6.72,14.44,29.15,9.13,0,0,3.48,14.12,25.4,13,0,0,15.48.66,28.48-13.67,0,0,10.31,0,15.39-2.19l-1.57-16.24-6.33-6.44L184.91,288l-39.62-5.15Z"/>
    <path class="cls-20" d="M192.35,294.45s-34.15,24.16-37.94-.52Z"/>
    <path class="cls-20" d="M133.87,279.12s4.66,31.8,20.54,14.81Z"/>
    <path class="cls-11" d="M230.66,314.89s-9.95,5-9.69,11.1c0,0-.51,10.47,6.69,7.76,0,0,1.51,4.65,5.09,2.49,0,0,3.85,3.75,6.29-2.45,0,0,2.43,1.59,4.12-3.23,0,0,.85-6.36-5.19-5.2,0,0,12.92-.39,19.87-11.3,0,0,3.75-10.54-9.5-16.45l-13.55,1.73S226.66,306.55,230.66,314.89Z"/>
    <path class="cls-12" d="M216.51,290.34s-10.12,3.33-2.53,15.34c0,0,9.47,9,16.68,9.21,0,0-3-6.68,4.13-15.55l-9.6-4.63Z"/>
    <path class="cls-22" d="M155.68,228.58s24.16-66.16,54.12-91.74c0,0,9.57-9.82,15.6-.59,0,0,4,5.35,2.8,30.46,0,0-3.75,39.6,5.47,74.71C233.67,241.42,201.48,227,155.68,228.58Z"/>
    <path class="cls-23" d="M170.65,211s-14.52-1.56-20.17,5c0,0-6,4.46-.17,4.49a17.52,17.52,0,0,0,8.75-1.35,96.18,96.18,0,0,1,11.34-1.86s2.38.5,4.65-3.81C175.05,213.46,175.71,211.89,170.65,211Z"/>
    <path class="cls-23" d="M190.41,213.11s15.62.33,20.71,8.08c0,0,5.72,5.55-.43,4.79a18.74,18.74,0,0,1-9.1-2.65,105.11,105.11,0,0,0-11.78-3.52s-2.59.19-4.4-4.69C185.41,215.12,184.92,213.36,190.41,213.11Z"/>
    <circle class="cls-24" cx="143.29" cy="254.37" r="1.96"/>
    <path class="cls-24" d="M208.53,228.9s-13,72.87,17.05,67.65c0,0,10.71,12.14,29.34-1.25,0,0,9.36-7.88-.62-18.13,0,0,8.36-9.43-13.1-19,0,0-6,1.05-7.53-16.78Z"/>
    <path class="cls-25" d="M162.89,262.15s-12.79,1.89-11.37,9.14c0,0-.22,8.11,11.56,9.77,0,0,19.95,1.71,28.51-11.67,0,0-2.07-1.38-1.74-9,0,0-1.58-3.93-11.24-1.91Z"/>
    <path class="cls-26" d="M182,267.82c-.14,3.6-10.95,6.09-24.18,5.58"/>
    <path class="cls-26" d="M191.76,256.81s-6,7.32,2,14.49"/>
    <ellipse class="cls-27" cx="168.23" cy="253.51" rx="16.57" ry="12.96" transform="translate(-135.89 244.64) rotate(-54.76)"/>
    <path class="cls-20" d="M145.18,231.27s-1.86,14.6,12.57,18.61l10.35-5.64,7.78-3.24,1.91-1.82-1.5-8.58-22.18-3.83Z"/>
    <circle cx="153.1" cy="230.84" r="2.99"/>
    <path class="cls-28" d="M145.18,231.27s1.45-14.05,16.19-14.48c11.76-.34,16.47,5.76,17.57,11.77-1,1.07-2.22,2-2.43,3.5C170.45,230,155.24,225.85,145.18,231.27Z"/>
    <path class="cls-20" d="M209.55,240.17S208,254.09,190.18,252.8c0,0-17.09-2.17-13.67-20.71l15.37-2.18,16,7.1Z"/>
    <circle cx="185.73" cy="233.96" r="2.99"/>
    <path class="cls-28" d="M209.55,240.17s2.64-13.87-11.36-18.51-20.31,3.59-21.68,10.43C176.51,232.09,199.27,229.89,209.55,240.17Z"/>
    <path class="cls-11" d="M500.1,232.63s-31.74,17.09-13.6,43.28c0,0,22.53,32,77.57,8.15l3.74-3.65-3-41.25Z"/>
    <path class="cls-11" d="M466.89,302.63s-18.22,6.27-22.26-2.87c0,0-2.73-1.65-3.67-13.4,0,0-12.38,0-11-8.75l8.29-2.67,17.35.68,4.79.19s3,5.91-6.15,9.15a18.11,18.11,0,0,0,1.88,3,20.69,20.69,0,0,0,7.25-1.61Z"/>
    <path class="cls-12" d="M476.72,280.84l-13.39,5.47s-.75,13.95,3.56,16.32l12.51-4.91Z"/>
    <ellipse class="cls-13" cx="440.22" cy="270.76" rx="7.62" ry="26.18" transform="translate(152.46 700.05) rotate(-87.76)"/>
    <path class="cls-14" d="M424.86,234.71a2.65,2.65,0,0,1,.5-1.38l30.16,1.18-.21,5.52h.05l-.74,18.8h-.05l-.43,11s-.33,2.13-2,2.16l-26.92-1.05s-1.5,0-1.77-2Z"/>
    <path class="cls-15" d="M453.38,236.89l-1.19,30.34a2,2,0,0,1-1.85,1.83l-5.55-.18,1.26-32.27Z"/>
    <rect class="cls-16" x="422.64" y="245.84" width="33.19" height="12.42" transform="translate(170.2 681.09) rotate(-87.76)"/>
    <path class="cls-17" d="M432.38,268.39l-5.49-.21a1.74,1.74,0,0,1-1.28-1.52l1.27-32.6,6.83.27Z"/>
    <circle class="cls-14" cx="452.32" cy="234.67" r="3.11"/>
    <circle class="cls-14" cx="449.32" cy="231.83" r="3.11"/>
    <circle class="cls-14" cx="446.21" cy="231.7" r="3.11"/>
    <circle class="cls-14" cx="443.21" cy="228.92" r="3.11"/>
    <circle class="cls-14" cx="440.07" cy="230.8" r="3.11"/>
    <circle class="cls-14" cx="436.95" cy="230.96" r="3.11"/>
    <circle class="cls-14" cx="432.47" cy="229.72" r="3.11"/>
    <circle class="cls-14" cx="429.35" cy="229.86" r="3.11"/>
    <circle class="cls-14" cx="427.56" cy="231.42" r="3.11"/>
    <circle class="cls-14" cx="430.64" cy="232.28" r="3.11"/>
    <circle class="cls-14" cx="434.3" cy="232.14" r="3.11"/>
    <circle class="cls-14" cx="436.36" cy="234.05" r="3.11"/>
    <circle class="cls-14" cx="440.76" cy="234.22" r="3.11"/>
    <circle class="cls-14" cx="444.99" cy="234.77" r="3.11"/>
    <circle class="cls-14" cx="448.71" cy="236.71" r="3.11"/>
    <circle class="cls-14" cx="450.89" cy="235.45" r="3.11"/>
    <circle class="cls-18" cx="441.95" cy="246.28" r="3.73"/>
    <circle class="cls-18" cx="433.05" cy="251.01" r="2.4"/>
    <circle class="cls-18" cx="436.72" cy="257.88" r="1.29"/>
    <path class="cls-19" d="M544.1,335.67s3.46,4.53.58,6.68c0,0-2.71,1.36-4.41-3,0,0,0,4.13-3.07,3.61,0,0-3.31-.21-3.6-3.34,0,0-1,4.89-5.68,2.31,0,0-2.53-1.06-3-3.23,0,0-1,4.33-4.59,3.63,0,0-2.78-.2-3.57-3.93,0,0-2.15,4.07-5.81,2.33,0,0-1.84-.6-2.78-4,0,0-1.32,3.28-4,2.78,0,0-3.94-1.35-4.24-4a6.17,6.17,0,0,1-6.43,1.15s-2.51-.63-2.89-4.37c0,0-3.05,2.94-6,1.23,0,0-2.26-.22-3.44-3.86,0,0-8.26,3.59-9.89-2.43l2.33-6.36Z"/>
    <path class="cls-20" d="M473.58,321s24.06,20.22,70.52,14.71l.36-22.62s29.13,1.67,33.68-5.74l-6-3.76S567.58,305,553,305.67l-72.56-3.51Z"/>
    <path class="cls-12" d="M580.36,301.68l12.89,32.85s1.55,2.86-1,4c0,0-51.18,24.49-121.89-3.83,0,0-1.73-.92-.59-3.32l10.73-29.24S557.88,311.31,580.36,301.68Z"/>
    <path class="cls-21" d="M485.91,270.62s-19.4,11-12.23,26.68c0,0,6.72,14.44,29.15,9.13,0,0,3.48,14.12,25.4,13,0,0,15.48.66,28.48-13.67,0,0,10.31,0,15.39-2.19l-1.57-16.24-6.33-6.44L537.91,284l-39.62-5.15Z"/>
    <path class="cls-20" d="M545.35,290.45s-34.15,24.16-37.94-.52Z"/>
    <path class="cls-20" d="M486.87,275.12s4.66,31.8,20.54,14.81Z"/>
    <path class="cls-11" d="M583.66,310.89s-9.95,5-9.69,11.1c0,0-.51,10.47,6.69,7.76,0,0,1.51,4.65,5.09,2.49,0,0,3.85,3.75,6.29-2.45,0,0,2.43,1.59,4.12-3.23,0,0,.85-6.36-5.19-5.2,0,0,12.92-.39,19.87-11.3,0,0,3.75-10.54-9.5-16.45l-13.55,1.73S579.66,302.55,583.66,310.89Z"/>
    <path class="cls-12" d="M569.51,286.34s-10.12,3.33-2.53,15.34c0,0,9.47,9,16.68,9.21,0,0-3-6.68,4.13-15.55l-9.6-4.63Z"/>
    <path class="cls-22" d="M508.68,224.58s24.16-66.16,54.12-91.74c0,0,9.57-9.82,15.6-.59,0,0,4,5.35,2.8,30.46,0,0-3.75,39.6,5.47,74.71C586.67,237.42,554.48,223,508.68,224.58Z"/>
    <path class="cls-23" d="M523.65,207s-14.52-1.56-20.17,5c0,0-6,4.46-.17,4.49a17.52,17.52,0,0,0,8.75-1.35,96.18,96.18,0,0,1,11.34-1.86s2.38.5,4.65-3.81C528.05,209.46,528.71,207.89,523.65,207Z"/>
    <path class="cls-23" d="M543.41,209.11s15.62.33,20.71,8.08c0,0,5.72,5.55-.43,4.79a18.74,18.74,0,0,1-9.1-2.65,105.11,105.11,0,0,0-11.78-3.52s-2.59.19-4.4-4.69C538.41,211.12,537.92,209.36,543.41,209.11Z"/>
    <circle class="cls-24" cx="496.29" cy="250.37" r="1.96"/>
    <path class="cls-24" d="M561.53,224.9s-13,72.87,17.05,67.65c0,0,10.71,12.14,29.34-1.25,0,0,9.36-7.88-.62-18.13,0,0,8.36-9.43-13.1-19,0,0-6,1.05-7.53-16.78Z"/>
    <path class="cls-25" d="M515.89,258.15s-12.79,1.89-11.37,9.14c0,0-.22,8.11,11.56,9.77,0,0,19.95,1.71,28.51-11.67,0,0-2.07-1.38-1.74-9,0,0-1.58-3.93-11.24-1.91Z"/>
    <path class="cls-26" d="M535,263.82c-.14,3.6-11,6.09-24.18,5.58"/>
    <path class="cls-26" d="M544.76,252.81s-6,7.32,2,14.49"/>
    <ellipse class="cls-27" cx="521.23" cy="249.51" rx="16.57" ry="12.96" transform="translate(16.7 531.27) rotate(-54.76)"/>
    <path class="cls-20" d="M498.18,227.27s-1.86,14.6,12.57,18.61l10.35-5.64,7.78-3.24,1.91-1.82-1.5-8.58-22.18-3.83Z"/>
    <circle cx="506.1" cy="226.84" r="2.99"/>
    <path class="cls-28" d="M498.18,227.27s1.45-14.05,16.19-14.48c11.76-.34,16.47,5.76,17.57,11.77-1,1.07-2.22,2-2.43,3.5C523.45,226,508.24,221.85,498.18,227.27Z"/>
    <path class="cls-20" d="M562.55,236.17S561,250.09,543.18,248.8c0,0-17.09-2.17-13.67-20.71l15.37-2.18,16,7.1Z"/>
    <circle cx="538.73" cy="229.96" r="2.99"/>
    <path class="cls-28" d="M562.55,236.17s2.64-13.87-11.36-18.51-20.31,3.59-21.68,10.43C529.51,228.09,552.27,225.89,562.55,236.17Z"/>
    <path class="cls-11" d="M851.4,230s-32.55,15.52-15.7,42.57c0,0,20.93,33,77.08,11.92l3.91-3.46-1-41.35Z"/>
    <path class="cls-11" d="M814.8,298.3s-18.5,5.38-22.09-3.95c0,0-2.65-1.78-3-13.56,0,0-12.36-.62-10.6-9.28l8.41-2.26,17.3,1.52,4.77.42s2.67,6.05-6.59,8.84a19.2,19.2,0,0,0,1.73,3.06,20.89,20.89,0,0,0,7.33-1.26Z"/>
    <path class="cls-12" d="M825.69,277l-13.64,4.81s-1.43,13.9,2.75,16.47L827.54,294Z"/>
    <ellipse class="cls-13" cx="789.72" cy="265.16" rx="7.62" ry="26.18" transform="translate(456.19 1028.53) rotate(-84.96)"/>
    <path class="cls-14" d="M776.14,228.41a2.64,2.64,0,0,1,.57-1.35l30.07,2.65-.49,5.5h.05l-1.65,18.73h-.05l-1,11s-.43,2.12-2.08,2.07l-26.84-2.36s-1.49-.09-1.67-2.1Z"/>
    <path class="cls-15" d="M804.52,232l-2.66,30.24a2,2,0,0,1-1.94,1.74l-5.54-.45,2.84-32.17Z"/>
    <rect class="cls-16" x="773.06" y="240.22" width="33.19" height="12.42" transform="translate(474.79 1011.38) rotate(-84.96)"/>
    <path class="cls-17" d="M782,262.42l-5.47-.48a1.74,1.74,0,0,1-1.21-1.58l2.86-32.5,6.81.6Z"/>
    <circle class="cls-14" cx="803.57" cy="229.71" r="3.11"/>
    <circle class="cls-14" cx="800.71" cy="226.72" r="3.11"/>
    <circle class="cls-14" cx="797.62" cy="226.45" r="3.11"/>
    <circle class="cls-14" cx="794.75" cy="223.53" r="3.11"/>
    <circle class="cls-14" cx="791.52" cy="225.25" r="3.11"/>
    <circle class="cls-14" cx="788.4" cy="225.25" r="3.11"/>
    <circle class="cls-14" cx="783.99" cy="223.8" r="3.11"/>
    <circle class="cls-14" cx="780.86" cy="223.79" r="3.11"/>
    <circle class="cls-14" cx="779" cy="225.26" r="3.11"/>
    <circle class="cls-14" cx="782.03" cy="226.26" r="3.11"/>
    <circle class="cls-14" cx="785.7" cy="226.3" r="3.11"/>
    <circle class="cls-14" cx="787.66" cy="228.31" r="3.11"/>
    <circle class="cls-14" cx="792.05" cy="228.7" r="3.11"/>
    <circle class="cls-14" cx="796.25" cy="229.45" r="3.11"/>
    <circle class="cls-14" cx="799.87" cy="231.57" r="3.11"/>
    <circle class="cls-14" cx="802.11" cy="230.42" r="3.11"/>
    <circle class="cls-18" cx="792.64" cy="240.8" r="3.73"/>
    <circle class="cls-18" cx="783.53" cy="245.09" r="2.4"/>
    <circle class="cls-18" cx="786.86" cy="252.13" r="1.29"/>
    <path class="cls-19" d="M890.31,335.07s3.23,4.7.25,6.7c0,0-2.78,1.23-4.26-3.18,0,0-.23,4.12-3.24,3.46,0,0-3.29-.37-3.43-3.51,0,0-1.23,4.83-5.79,2,0,0-2.47-1.19-2.86-3.38,0,0-1.24,4.27-4.76,3.4,0,0-2.77-.33-3.37-4.09,0,0-2.35,4-5.92,2,0,0-1.81-.69-2.58-4.1,0,0-1.49,3.21-4.1,2.58,0,0-3.87-1.54-4-4.17a6.17,6.17,0,0,1-6.48.83s-2.48-.75-2.68-4.5c0,0-3.18,2.79-6.09.93,0,0-2.24-.33-3.25-4,0,0-8.42,3.19-9.76-2.9l2.65-6.24Z"/>
    <path class="cls-20" d="M820.6,316.94s23,21.36,69.71,18.13l1.47-22.57s29,3.09,33.91-4.09l-5.85-4.05s-4.59,1.26-19.14,1.18l-72.29-7Z"/>
    <path class="cls-12" d="M928.18,302.89l11.28,33.45s1.41,2.93-1.22,4c0,0-52.31,22-121.55-9.78,0,0-1.69-1-.43-3.35l12.15-28.67S905.26,311.42,928.18,302.89Z"/>
    <path class="cls-21" d="M835.37,267.26s-19.92,10.06-13.52,26.05c0,0,6,14.75,28.66,10.54,0,0,2.8,14.27,24.74,14.2,0,0,15.43,1.43,29.11-12.25,0,0,10.3.51,15.48-1.44l-.77-16.3-6-6.74-26.41,1.88-39.32-7.07Z"/>
    <path class="cls-20" d="M893.76,290s-35.28,22.46-37.86-2.37Z"/>
    <path class="cls-20" d="M836.1,271.8s3.11,32,19.8,15.8Z"/>
    <path class="cls-11" d="M931,312.26s-10.18,4.51-10.22,10.61c0,0-1,10.43,6.3,8.07,0,0,1.29,4.72,5,2.74,0,0,3.66,3.93,6.4-2.14,0,0,2.35,1.71,4.27-3,0,0,1.16-6.31-4.93-5.45,0,0,12.92.24,20.4-10.32,0,0,4.26-10.34-8.68-16.89l-13.62,1.07S927.45,303.73,931,312.26Z"/>
    <path class="cls-12" d="M918.09,287s-10.26,2.84-3.27,15.21c0,0,9,9.47,16.21,10,0,0-2.67-6.82,4.89-15.33l-9.37-5.1Z"/>
    <path class="cls-22" d="M860.36,222.39s27.36-64.9,58.53-89c0,0,10-9.33,15.61.18,0,0,3.72,5.54,1.31,30.57,0,0-5.67,39.36,1.81,74.88C937.62,239,906.18,223,860.36,222.39Z"/>
    <path class="cls-23" d="M876.17,205.55s-14.42-2.27-20.39,4c0,0-6.17,4.16-.39,4.47a17.36,17.36,0,0,0,8.8-.92,96.71,96.71,0,0,1,11.43-1.3s2.35.61,4.82-3.58C880.44,208.23,881.18,206.69,876.17,205.55Z"/>
    <path class="cls-23" d="M895.8,208.63s15.59,1.1,20.3,9.08c0,0,5.44,5.83-.67,4.76a18.72,18.72,0,0,1-9-3.08,103.76,103.76,0,0,0-11.6-4.1s-2.59.07-4.16-4.89C890.71,210.4,890.31,208.62,895.8,208.63Z"/>
    <circle class="cls-24" cx="846.72" cy="247.54" r="1.96"/>
    <path class="cls-24" d="M913.12,225.29s-16.51,72.14,13.74,68.4c0,0,10.1,12.65,29.36.19,0,0,9.74-7.42.27-18.14,0,0,8.8-9-12.17-19.59,0,0-6.07.75-6.7-17.13Z"/>
    <path class="cls-25" d="M865.92,256.26s-12.87,1.27-11.81,8.58c0,0-.61,8.09,11.08,10.32,0,0,19.84,2.69,29-10.26,0,0-2-1.47-1.3-9.06,0,0-1.38-4-11.13-2.45Z"/>
    <path class="cls-26" d="M884.7,262.86c-.31,3.59-11.24,5.56-24.42,4.39"/>
    <path class="cls-26" d="M895,252.35s-6.4,7,1.31,14.57"/>
    <ellipse class="cls-27" cx="871.67" cy="247.9" rx="16.57" ry="12.96" transform="translate(139.31 781.68) rotate(-51.96)"/>
    <path class="cls-20" d="M849.73,224.56s-2.56,14.49,11.65,19.2L872,238.64l7.93-2.86,2-1.73-1.08-8.64-22-4.91Z"/>
    <circle cx="857.67" cy="224.52" r="2.99"/>
    <path class="cls-28" d="M849.73,224.56s2.14-14,16.89-13.67c11.75.24,16.17,6.56,17,12.61-1,1-2.32,1.92-2.59,3.38C875,224.55,860.05,219.63,849.73,224.56Z"/>
    <path class="cls-20" d="M913.6,236.6s-2.23,13.82-20,11.66c0,0-17-3-12.64-21.35l15.45-1.43,15.63,7.88Z"/>
    <circle cx="890.11" cy="229.23" r="2.99"/>
    <path class="cls-28" d="M913.6,236.6s3.31-13.73-10.44-19-20.47,2.6-22.16,9.36C881,226.91,903.83,225.82,913.6,236.6Z"/>
    <path class="cls-11" d="M1188.47,235.33s-30.49,19.23-10.59,44.11c0,0,24.67,30.34,77.95,2.8l3.47-3.9-5.8-40.95Z"/>
    <path class="cls-11" d="M1160.15,307.44s-17.75,7.51-22.4-1.33c0,0-2.84-1.46-4.58-13.11,0,0-12.36.83-11.62-8l8.09-3.24,17.35-.51,4.79-.14s3.36,5.69-5.51,9.54a18.79,18.79,0,0,0,2.08,2.84,20.88,20.88,0,0,0,7.13-2.11Z"/>
    <path class="cls-12" d="M1168.47,285l-13,6.38s.21,14,4.67,16l12.15-5.75Z"/>
    <ellipse class="cls-13" cx="1131.35" cy="277.48" rx="26.18" ry="7.62" transform="translate(-7.73 33.69) rotate(-1.7)"/>
    <path class="cls-14" d="M1113.55,242.58a2.6,2.6,0,0,1,.41-1.41l30.17-.9.16,5.52h0l.56,18.8h-.05l.33,11s-.19,2.15-1.83,2.3l-26.93.8s-1.49.1-1.9-1.89Z"/>
    <path class="cls-15" d="M1142.16,242.79l.9,30.35a2,2,0,0,1-1.72,1.95l-5.56.2-1-32.28Z"/>
    <rect class="cls-16" x="1122.87" y="242.29" width="12.42" height="33.19" transform="translate(-7.18 33.61) rotate(-1.7)"/>
    <path class="cls-17" d="M1123.37,275.66l-5.49.16a1.74,1.74,0,0,1-1.39-1.42l-1-32.61,6.84-.21Z"/>
    <circle class="cls-14" cx="1140.95" cy="240.65" r="3.11"/>
    <circle class="cls-14" cx="1137.76" cy="238.01" r="3.11"/>
    <circle class="cls-14" cx="1134.65" cy="238.11" r="3.11"/>
    <circle class="cls-14" cx="1131.46" cy="235.54" r="3.11"/>
    <circle class="cls-14" cx="1128.45" cy="237.62" r="3.11"/>
    <circle class="cls-14" cx="1125.35" cy="238" r="3.11"/>
    <circle class="cls-14" cx="1120.8" cy="237.07" r="3.11"/>
    <circle class="cls-14" cx="1117.7" cy="237.43" r="3.11"/>
    <circle class="cls-14" cx="1116.02" cy="239.11" r="3.11"/>
    <circle class="cls-14" cx="1119.15" cy="239.75" r="3.11"/>
    <circle class="cls-14" cx="1122.8" cy="239.36" r="3.11"/>
    <circle class="cls-14" cx="1124.98" cy="241.12" r="3.11"/>
    <circle class="cls-14" cx="1129.38" cy="240.99" r="3.11"/>
    <circle class="cls-14" cx="1133.64" cy="241.25" r="3.11"/>
    <circle class="cls-14" cx="1137.49" cy="242.93" r="3.11"/>
    <circle class="cls-14" cx="1139.57" cy="241.52" r="3.11"/>
    <circle class="cls-18" cx="1131.39" cy="252.94" r="3.73"/>
    <circle class="cls-18" cx="1122.84" cy="258.27" r="2.4"/>
    <circle class="cls-18" cx="1126.98" cy="264.87" r="1.29"/>
    <path class="cls-19" d="M1239.45,335.1s3.76,4.28,1,6.62c0,0-2.62,1.55-4.61-2.65,0,0,.26,4.11-2.81,3.81,0,0-3.31,0-3.82-3.09,0,0-.65,4.95-5.51,2.7,0,0-2.59-.89-3.24-3,0,0-.72,4.39-4.32,3.93,0,0-2.79,0-3.83-3.66,0,0-1.88,4.21-5.65,2.72,0,0-1.87-.48-3-3.77,0,0-1.09,3.36-3.77,3,0,0-4-1.08-4.5-3.66a6.19,6.19,0,0,1-6.34,1.59s-2.54-.46-3.18-4.17c0,0-2.84,3.15-5.94,1.64,0,0-2.27-.06-3.7-3.61,0,0-8,4.15-10-1.74l1.89-6.51Z"/>
    <path class="cls-20" d="M1168.09,325.27s25.39,18.51,71.36,9.83l-1.19-22.59s29.17-.33,33.2-8l-6.29-3.34s-4.4,1.79-18.86,3.42L1173.68,306Z"/>
    <path class="cls-12" d="M1273.28,298.69l15.12,31.9s1.75,2.74-.74,4.08c0,0-49.37,27.95-121.86,4.55,0,0-1.79-.8-.81-3.27l8.69-29.91S1251.52,309.85,1273.28,298.69Z"/>
    <path class="cls-21" d="M1176.93,274.2s-18.6,12.33-10.37,27.46c0,0,7.69,13.95,29.7,7.1,0,0,4.45,13.85,26.24,11.2,0,0,15.49-.39,27.47-15.58,0,0,10.28-.71,15.2-3.25L1262.5,285l-6.77-6-26,5-39.88-2.41Z"/>
    <path class="cls-20" d="M1237.59,289.9s-32.41,26.45-37.88,2.09Z"/>
    <path class="cls-20" d="M1178.19,278.62S1185,310,1199.71,292Z"/>
    <path class="cls-11" d="M1277.21,307.66s-9.58,5.67-8.9,11.74c0,0,.21,10.48,7.2,7.28,0,0,1.83,4.53,5.26,2.14,0,0,4.09,3.47,6.1-2.88,0,0,2.54,1.42,3.89-3.51,0,0,.41-6.4-5.54-4.83,0,0,12.87-1.28,19.06-12.64,0,0,3-10.77-10.62-15.76l-13.39,2.66S1272.65,299.61,1277.21,307.66Z"/>
    <path class="cls-12" d="M1261.41,284.14s-9.87,4-1.48,15.48c0,0,10.07,8.35,17.28,8,0,0-3.45-6.46,3.06-15.8l-9.9-4Z"/>
    <path class="cls-22" d="M1196.48,226.71s19.55-67.66,47.68-95.25c0,0,8.88-10.45,15.53-1.66,0,0,4.34,5.06,4.89,30.2,0,0-1,39.76,10.58,74.15C1275.16,234.15,1242.06,222,1196.48,226.71Z"/>
    <path class="cls-23" d="M1210.2,208.13s-14.59-.56-19.77,6.38c0,0-5.65,4.86.13,4.48a17.4,17.4,0,0,0,8.64-2,98.43,98.43,0,0,1,11.19-2.63s2.41.33,4.37-4.12C1214.76,210.29,1215.31,208.68,1210.2,208.13Z"/>
    <path class="cls-23" d="M1230.06,208.88s15.61-.74,21.22,6.64c0,0,6.09,5.15-.1,4.81a18.78,18.78,0,0,1-9.26-2,103.31,103.31,0,0,0-12-2.71s-2.57.37-4.71-4.37C1225.21,211.24,1224.61,209.52,1230.06,208.88Z"/>
    <circle class="cls-24" cx="1185.89" cy="253.29" r="1.96"/>
    <path class="cls-24" d="M1249.22,223.39s-7.93,73.59,21.67,66.32c0,0,11.51,11.37,29.18-3.26,0,0,8.8-8.51-1.87-18,0,0,7.69-10-14.37-18,0,0-5.95,1.46-8.67-16.23Z"/>
    <path class="cls-25" d="M1206,259.7s-12.63,2.77-10.72,9.9c0,0,.34,8.11,12.21,8.95,0,0,20,.34,27.64-13.6,0,0-2.16-1.23-2.35-8.84,0,0-1.85-3.81-11.35-1.13Z"/>
    <path class="cls-26" d="M1225.41,264c.1,3.61-10.52,6.84-23.75,7.23"/>
    <path class="cls-26" d="M1234.41,252.39s-5.53,7.72,3,14.32"/>
    <ellipse class="cls-27" cx="1210.71" cy="250.72" rx="16.57" ry="12.96" transform="matrix(0.52, -0.85, 0.85, 0.52, 367.54, 1155.01)"/>
    <path class="cls-20" d="M1186.18,230.11s-.84,14.69,13.82,17.7l10-6.33,7.53-3.77,1.78-2-2.09-8.46L1194.78,225Z"/>
    <circle cx="1194.06" cy="229.14" r="2.99"/>
    <path class="cls-28" d="M1186.18,230.11s.49-14.12,15.17-15.55c11.7-1.15,16.82,4.61,18.33,10.53-.88,1.13-2.08,2.17-2.18,3.66C1211.32,227.13,1195.85,224,1186.18,230.11Z"/>
    <path class="cls-20" d="M1251,234.57s-.59,14-18.46,13.92c0,0-17.19-1-15.06-19.71l15.18-3.24,16.45,6Z"/>
    <circle cx="1226.82" cy="230.01" r="2.99"/>
    <path class="cls-28" d="M1251,234.57s1.68-14-12.61-17.69-20,5-20.91,11.9C1217.5,228.78,1240.05,225,1251,234.57Z"/>
    <path class="cls-11" d="M1539.42,229.85s-29.87,20.2-9.18,44.44c0,0,25.63,29.52,78,.3l3.35-4-7.12-40.75Z"/>
    <path class="cls-11" d="M1513.41,302.84s-17.49,8.08-22.43-.62c0,0-2.88-1.36-5-13,0,0-12.32,1.23-11.86-7.6l8-3.49,17.33-1.07,4.78-.3s3.54,5.58-5.2,9.72a19.31,19.31,0,0,0,2.17,2.77,20.71,20.71,0,0,0,7-2.34Z"/>
    <path class="cls-12" d="M1521,280.18,1508.23,287s.67,14,5.18,15.88l12-6.14Z"/>
    <ellipse class="cls-13" cx="1483.67" cy="273.81" rx="26.18" ry="7.62" transform="translate(-14.06 92.02) rotate(-3.54)"/>
    <path class="cls-14" d="M1464.76,239.5a2.58,2.58,0,0,1,.37-1.42l30.12-1.87.34,5.51h.05l1.16,18.77h0l.68,11s-.12,2.15-1.75,2.35l-26.89,1.66s-1.49.15-2-1.82Z"/>
    <path class="cls-15" d="M1493.36,238.8l1.87,30.3a2,2,0,0,1-1.66,2l-5.54.37-2-32.23Z"/>
    <rect class="cls-16" x="1474.6" y="238.71" width="12.42" height="33.19" transform="translate(-12.93 91.81) rotate(-3.54)"/>
    <path class="cls-17" d="M1475.63,272.25l-5.47.34a1.75,1.75,0,0,1-1.44-1.38l-2-32.57,6.82-.42Z"/>
    <circle class="cls-14" cx="1492.08" cy="236.69" r="3.11"/>
    <circle class="cls-14" cx="1488.81" cy="234.16" r="3.11"/>
    <circle class="cls-14" cx="1485.71" cy="234.36" r="3.11"/>
    <circle class="cls-14" cx="1482.44" cy="231.89" r="3.11"/>
    <circle class="cls-14" cx="1479.5" cy="234.07" r="3.11"/>
    <circle class="cls-14" cx="1476.41" cy="234.55" r="3.11"/>
    <circle class="cls-14" cx="1471.83" cy="233.76" r="3.11"/>
    <circle class="cls-14" cx="1468.74" cy="234.22" r="3.11"/>
    <circle class="cls-14" cx="1467.12" cy="235.95" r="3.11"/>
    <circle class="cls-14" cx="1470.27" cy="236.49" r="3.11"/>
    <circle class="cls-14" cx="1473.9" cy="235.98" r="3.11"/>
    <circle class="cls-14" cx="1476.14" cy="237.68" r="3.11"/>
    <circle class="cls-14" cx="1480.53" cy="237.41" r="3.11"/>
    <circle class="cls-14" cx="1484.8" cy="237.53" r="3.11"/>
    <circle class="cls-14" cx="1488.7" cy="239.09" r="3.11"/>
    <circle class="cls-14" cx="1490.74" cy="237.61" r="3.11"/>
    <circle class="cls-18" cx="1482.93" cy="249.29" r="3.73"/>
    <circle class="cls-18" cx="1474.55" cy="254.88" r="2.4"/>
    <circle class="cls-18" cx="1478.9" cy="261.36" r="1.29"/>
    <path class="cls-19" d="M1593.56,327.94s3.9,4.16,1.25,6.59c0,0-2.56,1.62-4.69-2.51,0,0,.39,4.11-2.69,3.9,0,0-3.31.13-3.91-3,0,0-.49,5-5.42,2.87,0,0-2.63-.8-3.33-2.91,0,0-.59,4.4-4.2,4.07,0,0-2.79.09-4-3.55,0,0-1.74,4.27-5.55,2.91,0,0-1.89-.42-3.16-3.67,0,0-1,3.39-3.67,3.16,0,0-4.06-.95-4.62-3.52a6.17,6.17,0,0,1-6.28,1.79s-2.56-.37-3.32-4.06c0,0-2.73,3.23-5.89,1.83,0,0-2.26,0-3.81-3.5,0,0-7.85,4.41-10.08-1.41l1.68-6.57Z"/>
    <path class="cls-20" d="M1521.92,320.4s26,17.69,71.64,7.54l-1.91-22.54s29.14-1.27,32.92-9.1l-6.39-3.14s-4.35,1.94-18.74,4L1526.89,301Z"/>
    <path class="cls-12" d="M1626.21,290.47l16.14,31.39s1.83,2.69-.62,4.1c0,0-48.45,29.52-121.65,8.45,0,0-1.81-.73-.92-3.24l7.73-30.17S1604.82,302.32,1626.21,290.47Z"/>
    <path class="cls-21" d="M1529.12,269.08s-18.19,12.92-9.48,27.77c0,0,8.13,13.7,29.91,6.15,0,0,4.89,13.7,26.59,10.36,0,0,15.47-.9,26.95-16.46,0,0,10.26-1,15.09-3.74l-3.19-16-7-5.77-25.83,5.79-39.94-1.13Z"/>
    <path class="cls-20" d="M1590.25,282.82s-31.54,27.48-37.79,3.31Z"/>
    <path class="cls-20" d="M1530.52,273.46s7.84,31.17,21.94,12.67Z"/>
    <path class="cls-11" d="M1630.43,299.31s-9.4,6-8.53,12c0,0,.55,10.46,7.43,7,0,0,2,4.47,5.32,2,0,0,4.21,3.34,6-3.07,0,0,2.58,1.34,3.78-3.64,0,0,.2-6.41-5.69-4.64,0,0,12.82-1.69,18.64-13.25,0,0,2.66-10.86-11.11-15.41L1633,283.42S1625.61,291.41,1630.43,299.31Z"/>
    <path class="cls-12" d="M1613.87,276.3s-9.73,4.34-1,15.52c0,0,10.33,8,17.53,7.49,0,0-3.67-6.35,2.54-15.89l-10-3.65Z"/>
    <path class="cls-22" d="M1547.14,221s17.38-68.25,44.61-96.73c0,0,8.53-10.72,15.46-2.15,0,0,4.5,4.92,5.85,30,0,0,.26,39.77,13,73.77C1626,225.9,1592.54,214.77,1547.14,221Z"/>
    <path class="cls-23" d="M1560.26,202s-14.6-.09-19.56,7c0,0-5.48,5,.28,4.48a17.42,17.42,0,0,0,8.57-2.23,97,97,0,0,1,11.1-3s2.42.25,4.24-4.26C1564.89,204,1565.38,202.36,1560.26,202Z"/>
    <path class="cls-23" d="M1580.14,202.09s15.57-1.24,21.42,6c0,0,6.24,4.95,0,4.8a18.72,18.72,0,0,1-9.32-1.71,102.82,102.82,0,0,0-12.08-2.32s-2.56.45-4.85-4.22C1575.36,204.6,1574.7,202.9,1580.14,202.09Z"/>
    <circle class="cls-24" cx="1537.41" cy="247.89" r="1.96"/>
    <path class="cls-24" d="M1599.75,216s-5.57,73.8,23.78,65.59c0,0,11.87,11,29.06-4.19,0,0,8.52-8.79-2.44-18,0,0,7.37-10.22-15-17.56,0,0-5.89,1.65-9.18-15.94Z"/>
    <path class="cls-25" d="M1557.69,253.65s-12.53,3.17-10.4,10.24c0,0,.6,8.09,12.5,8.56,0,0,20-.31,27.18-14.48,0,0-2.19-1.16-2.63-8.77,0,0-2-3.74-11.38-.76Z"/>
    <path class="cls-26" d="M1577.25,257.37c.22,3.6-10.29,7.17-23.5,8"/>
    <path class="cls-26" d="M1585.87,245.44s-5.28,7.89,3.47,14.21"/>
    <ellipse class="cls-27" cx="1562.13" cy="244.52" rx="16.57" ry="12.96" transform="translate(580.92 1484.39) rotate(-60.54)"/>
    <path class="cls-20" d="M1537,224.71s-.37,14.72,14.38,17.25l9.73-6.65,7.42-4,1.71-2-2.36-8.39-22.45-1.57Z"/>
    <circle cx="1544.8" cy="223.49" r="2.99"/>
    <path class="cls-28" d="M1537,224.71s0-14.12,14.66-16c11.65-1.52,17,4.07,18.66,9.94-.84,1.16-2,2.24-2.06,3.73C1562,220.93,1546.42,218.3,1537,224.71Z"/>
    <path class="cls-20" d="M1601.9,227.09s-.13,14-18,14.51c0,0-17.22-.44-15.68-19.22l15.07-3.72,16.63,5.46Z"/>
    <circle cx="1577.58" cy="223.31" r="2.99"/>
    <path class="cls-28" d="M1601.9,227.09s1.23-14.07-13.16-17.28-19.85,5.63-20.52,12.57C1568.22,222.38,1590.64,217.89,1601.9,227.09Z"/>
    <path class="cls-11" d="M1877.41,228.48s-29.15,21.21-7.64,44.72c0,0,26.62,28.63,78-2.38l3.21-4.12-8.52-40.48Z"/>
    <path class="cls-11" d="M1853.93,302.31s-17.21,8.68-22.44.16c0,0-2.93-1.26-5.44-12.78,0,0-12.27,1.66-12.12-7.18l7.86-3.76,17.28-1.67,4.76-.46s3.74,5.46-4.86,9.89a19.06,19.06,0,0,0,2.27,2.69,20.72,20.72,0,0,0,7-2.58Z"/>
    <path class="cls-12" d="M1860.74,279.4l-12.53,7.22s1.14,13.93,5.72,15.69l11.74-6.54Z"/>
    <ellipse class="cls-13" cx="1823.21" cy="274.33" rx="26.18" ry="7.62" transform="translate(-17.91 176.19) rotate(-5.51)"/>
    <path class="cls-14" d="M1803.13,240.68a2.6,2.6,0,0,1,.31-1.43l30-2.9.53,5.49h0l1.8,18.72h0l1.06,11s0,2.16-1.67,2.41l-26.82,2.59s-1.48.19-2-1.76Z"/>
    <path class="cls-15" d="M1831.69,239l2.91,30.22a2,2,0,0,1-1.59,2.06l-5.52.57-3.1-32.15Z"/>
    <rect class="cls-16" x="1813.5" y="239.33" width="12.42" height="33.19" transform="translate(-16.16 175.77) rotate(-5.51)"/>
    <path class="cls-17" d="M1815.12,273l-5.46.53a1.74,1.74,0,0,1-1.48-1.33l-3.13-32.48,6.8-.65Z"/>
    <circle class="cls-14" cx="1830.34" cy="236.94" r="3.11"/>
    <circle class="cls-14" cx="1826.98" cy="234.52" r="3.11"/>
    <circle class="cls-14" cx="1823.88" cy="234.82" r="3.11"/>
    <circle class="cls-14" cx="1820.53" cy="232.47" r="3.11"/>
    <circle class="cls-14" cx="1817.67" cy="234.75" r="3.11"/>
    <circle class="cls-14" cx="1814.6" cy="235.33" r="3.11"/>
    <circle class="cls-14" cx="1810" cy="234.71" r="3.11"/>
    <circle class="cls-14" cx="1806.93" cy="235.27" r="3.11"/>
    <circle class="cls-14" cx="1805.36" cy="237.06" r="3.11"/>
    <circle class="cls-14" cx="1808.53" cy="237.49" r="3.11"/>
    <circle class="cls-14" cx="1812.14" cy="236.86" r="3.11"/>
    <circle class="cls-14" cx="1814.44" cy="238.47" r="3.11"/>
    <circle class="cls-14" cx="1818.82" cy="238.05" r="3.11"/>
    <circle class="cls-14" cx="1823.09" cy="238.02" r="3.11"/>
    <circle class="cls-14" cx="1827.04" cy="239.45" r="3.11"/>
    <circle class="cls-14" cx="1829.03" cy="237.9" r="3.11"/>
    <circle class="cls-18" cx="1821.62" cy="249.84" r="3.73"/>
    <circle class="cls-18" cx="1813.44" cy="255.72" r="2.4"/>
    <circle class="cls-18" cx="1818.01" cy="262.04" r="1.29"/>
    <path class="cls-20" d="M1863,319.57s26.56,16.79,71.85,5.08l-2.69-22.46s29.09-2.27,32.6-10.23l-6.5-2.92s-4.27,2.09-18.59,4.67L1867.34,300Z"/>
    <path class="cls-12" d="M1966.24,286.07l17.2,30.82s1.92,2.62-.47,4.13c0,0-47.41,31.16-121.29,12.62,0,0-1.84-.67-1-3.21l6.69-30.41S1945.26,298.65,1966.24,286.07Z"/>
    <path class="cls-21" d="M1868.47,268s-17.74,13.54-8.52,28.09c0,0,8.59,13.4,30.11,5.12,0,0,5.35,13.51,26.92,9.43,0,0,15.43-1.42,26.37-17.38,0,0,10.22-1.38,15-4.25l-3.73-15.87-7.15-5.53-25.62,6.68-40,.24Z"/>
    <path class="cls-20" d="M1930,279.67s-30.58,28.55-37.65,4.6Z"/>
    <path class="cls-20" d="M1870,272.36s8.91,30.88,22.36,11.91Z"/>
    <path class="cls-11" d="M1970.75,294.76s-9.18,6.3-8.1,12.31c0,0,.9,10.44,7.67,6.78,0,0,2.12,4.4,5.38,1.78,0,0,4.32,3.2,5.9-3.27,0,0,2.63,1.25,3.65-3.76,0,0,0-6.41-5.84-4.45,0,0,12.74-2.13,18.17-13.88,0,0,2.29-10.95-11.64-15l-13.19,3.54S1965.67,287,1970.75,294.76Z"/>
    <path class="cls-12" d="M1953.42,272.34s-9.58,4.67-.44,15.55c0,0,10.6,7.66,17.77,6.87,0,0-3.88-6.22,2-16l-10.14-3.29Z"/>
    <path class="cls-22" d="M1884.82,219.34s15-68.81,41.26-98.2c0,0,8.16-11,15.38-2.68,0,0,4.67,4.76,6.88,29.81,0,0,1.63,39.73,15.49,73.28C1963.83,221.55,1930,211.58,1884.82,219.34Z"/>
    <path class="cls-23" d="M1897.28,199.9s-14.59.4-19.3,7.67c0,0-5.31,5.23.43,4.47a17.52,17.52,0,0,0,8.49-2.52,96.38,96.38,0,0,1,11-3.36s2.42.16,4.08-4.41C1902,201.75,1902.42,200.11,1897.28,199.9Z"/>
    <path class="cls-23" d="M1917.15,199.33s15.52-1.77,21.61,5.22c0,0,6.42,4.73.22,4.8a18.74,18.74,0,0,1-9.37-1.39,105.19,105.19,0,0,0-12.15-1.91s-2.54.54-5-4.05C1912.46,202,1911.75,200.33,1917.15,199.33Z"/>
    <circle class="cls-24" cx="1876.02" cy="246.57" r="1.96"/>
    <path class="cls-24" d="M1937.23,212.54s-3,74,26,64.73c0,0,12.25,10.58,28.9-5.19,0,0,8.22-9.08-3.06-17.88,0,0,7-10.47-15.54-17,0,0-5.84,1.85-9.72-15.62Z"/>
    <path class="cls-25" d="M1896.49,251.63s-12.42,3.6-10,10.59c0,0,.88,8.07,12.78,8.13,0,0,20-1,26.67-15.41,0,0-2.23-1.08-2.93-8.67,0,0-2.09-3.67-11.39-.37Z"/>
    <path class="cls-26" d="M1916.16,254.68c.35,3.59-10,7.52-23.21,8.79"/>
    <path class="cls-26" d="M1924.37,242.46s-5,8.06,4,14.08"/>
    <ellipse class="cls-27" cx="1900.61" cy="242.36" rx="16.57" ry="12.96" transform="translate(808.26 1816.47) rotate(-62.51)"/>
    <path class="cls-20" d="M1874.78,223.42s.13,14.72,15,16.75l9.5-7,7.27-4.26,1.64-2.06-2.64-8.3-22.49-.81Z"/>
    <circle cx="1882.57" cy="221.93" r="2.99"/>
    <path class="cls-28" d="M1874.78,223.42s-.46-14.11,14.09-16.52c11.6-1.92,17.1,3.49,19,9.29-.81,1.19-1.93,2.31-1.93,3.79C1899.66,218.78,1884,216.69,1874.78,223.42Z"/>
    <path class="cls-20" d="M1939.76,223.57s.35,14-17.49,15.12c0,0-17.22.15-16.33-18.68l14.93-4.23,16.81,4.88Z"/>
    <circle cx="1915.32" cy="220.63" r="2.99"/>
    <path class="cls-28" d="M1939.76,223.57s.75-14.1-13.75-16.82-19.64,6.31-20.07,13.26C1905.94,220,1928.19,214.76,1939.76,223.57Z"/>
    <path class="cls-11" d="M2236.38,229.59s-30.06,19.9-9.61,44.34c0,0,25.33,29.78,78,1.07l3.39-4-6.72-40.82Z"/>
    <path class="cls-11" d="M2209.66,302.31s-17.58,7.91-22.43-.83c0,0-2.86-1.39-4.87-13,0,0-12.33,1.11-11.79-7.71l8-3.41,17.34-.9,4.78-.25s3.49,5.62-5.29,9.67a18.77,18.77,0,0,0,2.14,2.78,20.66,20.66,0,0,0,7.08-2.26Z"/>
    <path class="cls-12" d="M2217.48,279.73l-12.84,6.66s.52,14,5,15.92l12-6Z"/>
    <ellipse class="cls-13" cx="2180.21" cy="273" rx="26.18" ry="7.62" transform="translate(-11.21 113.3) rotate(-2.97)"/>
    <path class="cls-14" d="M2161.64,238.5a2.68,2.68,0,0,1,.37-1.42l30.15-1.56.28,5.5h0l1,18.78h0l.57,11s-.14,2.15-1.78,2.34l-26.9,1.39s-1.5.13-1.95-1.85Z"/>
    <path class="cls-15" d="M2190.24,238.08l1.57,30.32a2,2,0,0,1-1.68,2l-5.54.32-1.67-32.25Z"/>
    <rect class="cls-16" x="2171.32" y="237.86" width="12.42" height="33.19" transform="matrix(1, -0.05, 0.05, 1, -10.26, 113.14)"/>
    <path class="cls-17" d="M2172.18,271.35l-5.48.29a1.73,1.73,0,0,1-1.42-1.39l-1.69-32.59,6.83-.35Z"/>
    <circle class="cls-14" cx="2188.98" cy="235.96" r="3.11"/>
    <circle class="cls-14" cx="2185.74" cy="233.4" r="3.11"/>
    <circle class="cls-14" cx="2182.63" cy="233.56" r="3.11"/>
    <circle class="cls-14" cx="2179.39" cy="231.07" r="3.11"/>
    <circle class="cls-14" cx="2176.43" cy="233.22" r="3.11"/>
    <circle class="cls-14" cx="2173.33" cy="233.66" r="3.11"/>
    <circle class="cls-14" cx="2168.76" cy="232.83" r="3.11"/>
    <circle class="cls-14" cx="2165.67" cy="233.26" r="3.11"/>
    <circle class="cls-14" cx="2164.03" cy="234.98" r="3.11"/>
    <circle class="cls-14" cx="2167.17" cy="235.55" r="3.11"/>
    <circle class="cls-14" cx="2170.81" cy="235.07" r="3.11"/>
    <circle class="cls-14" cx="2173.03" cy="236.79" r="3.11"/>
    <circle class="cls-14" cx="2177.43" cy="236.56" r="3.11"/>
    <circle class="cls-14" cx="2181.69" cy="236.72" r="3.11"/>
    <circle class="cls-14" cx="2185.57" cy="238.32" r="3.11"/>
    <circle class="cls-14" cx="2187.63" cy="236.87" r="3.11"/>
    <circle class="cls-18" cx="2179.71" cy="248.46" r="3.73"/>
    <circle class="cls-18" cx="2171.27" cy="253.98" r="2.4"/>
    <circle class="cls-18" cx="2175.55" cy="260.49" r="1.29"/>
    <path class="cls-20" d="M2218,320s25.8,18,71.56,8.25l-1.69-22.56s29.16-1,33-8.77l-6.36-3.2s-4.37,1.89-18.79,3.84l-72.57,3.09Z"/>
    <path class="cls-12" d="M2322.57,291.06l15.83,31.55s1.8,2.71-.66,4.1c0,0-48.74,29-121.72,7.25,0,0-1.81-.76-.89-3.26l8-30.09S2301.06,302.7,2322.57,291.06Z"/>
    <path class="cls-21" d="M2225.7,268.71s-18.32,12.74-9.75,27.68c0,0,8,13.78,29.85,6.45,0,0,4.75,13.74,26.47,10.61,0,0,15.48-.74,27.12-16.19,0,0,10.27-.93,15.13-3.58l-3-16-6.9-5.84-25.89,5.54-39.92-1.52Z"/>
    <path class="cls-20" d="M2286.69,283.06s-31.81,27.17-37.82,2.93Z"/>
    <path class="cls-20" d="M2227.06,273.1s7.53,31.25,21.81,12.89Z"/>
    <path class="cls-11" d="M2326.7,299.94s-9.46,5.89-8.64,11.94c0,0,.44,10.47,7.36,7.11,0,0,1.93,4.49,5.3,2,0,0,4.17,3.38,6-3,0,0,2.57,1.37,3.81-3.59,0,0,.27-6.41-5.64-4.71,0,0,12.83-1.56,18.77-13.06,0,0,2.77-10.83-11-15.52l-13.34,3S2322,292,2326.7,299.94Z"/>
    <path class="cls-12" d="M2310.38,276.77s-9.78,4.24-1.13,15.52c0,0,10.25,8.12,17.45,7.65,0,0-3.6-6.38,2.7-15.86l-10-3.75Z"/>
    <path class="cls-22" d="M2244.2,220.79s18-68.07,45.56-96.28c0,0,8.64-10.64,15.48-2,0,0,4.45,5,5.56,30.09,0,0-.14,39.77,12.22,73.9C2323,226.5,2289.66,215,2244.2,220.79Z"/>
    <path class="cls-23" d="M2257.5,201.92s-14.6-.24-19.63,6.81c0,0-5.53,5,.24,4.49a17.52,17.52,0,0,0,8.59-2.15,97.65,97.65,0,0,1,11.13-2.87s2.41.27,4.28-4.22C2262.11,204,2262.62,202.35,2257.5,201.92Z"/>
    <path class="cls-23" d="M2277.38,202.23s15.58-1.08,21.36,6.17c0,0,6.19,5,0,4.8a18.7,18.7,0,0,1-9.3-1.8,103.8,103.8,0,0,0-12.06-2.44s-2.56.43-4.81-4.27C2272.57,204.69,2271.93,203,2277.38,202.23Z"/>
    <circle class="cls-24" cx="2234.2" cy="247.6" r="1.96"/>
    <path class="cls-24" d="M2296.85,216.31s-6.3,73.75,23.13,65.83c0,0,11.77,11.11,29.1-3.91,0,0,8.61-8.71-2.26-18,0,0,7.46-10.15-14.77-17.7,0,0-5.92,1.59-9-16Z"/>
    <path class="cls-25" d="M2254.42,253.57s-12.56,3.05-10.5,10.13c0,0,.52,8.1,12.41,8.68,0,0,20-.1,27.33-14.2,0,0-2.19-1.19-2.55-8.8,0,0-1.92-3.76-11.37-.87Z"/>
    <path class="cls-26" d="M2273.94,257.48c.19,3.6-10.36,7.07-23.58,7.75"/>
    <path class="cls-26" d="M2282.68,245.63s-5.36,7.84,3.33,14.25"/>
    <ellipse class="cls-27" cx="2258.95" cy="244.48" rx="16.57" ry="12.96" transform="translate(916.86 2077.9) rotate(-59.97)"/>
    <path class="cls-20" d="M2234,224.43s-.51,14.7,14.21,17.39l9.8-6.56,7.46-3.93,1.73-2-2.27-8.41-22.44-1.8Z"/>
    <circle cx="2241.83" cy="223.28" r="2.99"/>
    <path class="cls-28" d="M2234,224.43s.18-14.13,14.82-15.89c11.67-1.41,16.93,4.24,18.57,10.12-.86,1.15-2,2.22-2.1,3.71C2259,220.89,2243.5,218.11,2234,224.43Z"/>
    <path class="cls-20" d="M2298.89,227.45s-.27,14-18.14,14.33c0,0-17.21-.61-15.49-19.38l15.1-3.57,16.58,5.62Z"/>
    <circle cx="2274.6" cy="223.43" r="2.99"/>
    <path class="cls-28" d="M2298.89,227.45s1.37-14.06-13-17.41-19.9,5.43-20.64,12.36C2265.26,222.4,2287.72,218.14,2298.89,227.45Z"/>
    <path class="cls-11" d="M2588.44,233.83s-30.89,18.58-11.52,43.88c0,0,24,30.85,77.87,4.45l3.56-3.83-4.94-41.06Z"/>
    <path class="cls-11" d="M2558.6,305.33s-17.9,7.14-22.37-1.81c0,0-2.81-1.51-4.3-13.2,0,0-12.37.57-11.45-8.21l8.16-3.07,17.36-.15,4.79,0s3.24,5.76-5.71,9.43a18.55,18.55,0,0,0,2,2.88,20.82,20.82,0,0,0,7.17-2Z"/>
    <path class="cls-12" d="M2567.39,283.1l-13.12,6.1s-.08,14,4.33,16.13l12.27-5.49Z"/>
    <ellipse class="cls-13" cx="2530.44" cy="274.76" rx="26.18" ry="7.62" transform="translate(-2.26 21.63) rotate(-0.49)"/>
    <path class="cls-14" d="M2513.38,239.49a2.6,2.6,0,0,1,.44-1.4l30.18-.25.05,5.51h0l.16,18.8h-.05l.09,11s-.23,2.15-1.87,2.26l-26.94.23s-1.5.07-1.86-1.93Z"/>
    <path class="cls-15" d="M2542,240.31l.26,30.36a2,2,0,0,1-1.77,1.92l-5.55.08-.28-32.29Z"/>
    <rect class="cls-16" x="2522.36" y="239.53" width="12.42" height="33.19" transform="translate(-2.1 21.62) rotate(-0.49)"/>
    <path class="cls-17" d="M2522.5,272.78l-5.49,0a1.73,1.73,0,0,1-1.36-1.45l-.28-32.62,6.84-.06Z"/>
    <circle class="cls-14" cx="2540.81" cy="238.15" r="3.11"/>
    <circle class="cls-14" cx="2537.68" cy="235.44" r="3.11"/>
    <circle class="cls-14" cx="2534.57" cy="235.47" r="3.11"/>
    <circle class="cls-14" cx="2531.44" cy="232.84" r="3.11"/>
    <circle class="cls-14" cx="2528.38" cy="234.86" r="3.11"/>
    <circle class="cls-14" cx="2525.28" cy="235.17" r="3.11"/>
    <circle class="cls-14" cx="2520.75" cy="234.14" r="3.11"/>
    <circle class="cls-14" cx="2517.64" cy="234.44" r="3.11"/>
    <circle class="cls-14" cx="2515.92" cy="236.08" r="3.11"/>
    <circle class="cls-14" cx="2519.04" cy="236.78" r="3.11"/>
    <circle class="cls-14" cx="2522.69" cy="236.47" r="3.11"/>
    <circle class="cls-14" cx="2524.84" cy="238.28" r="3.11"/>
    <circle class="cls-14" cx="2529.24" cy="238.24" r="3.11"/>
    <circle class="cls-14" cx="2533.5" cy="238.59" r="3.11"/>
    <circle class="cls-14" cx="2537.3" cy="240.35" r="3.11"/>
    <circle class="cls-14" cx="2539.42" cy="238.99" r="3.11"/>
    <circle class="cls-18" cx="2531" cy="250.23" r="3.73"/>
    <circle class="cls-18" cx="2522.34" cy="255.38" r="2.4"/>
    <circle class="cls-18" cx="2526.33" cy="262.07" r="1.29"/>
    <path class="cls-20" d="M2566.16,323.32s25,19.05,71.14,11.34l-.72-22.61s29.17.28,33.37-7.34l-6.22-3.47s-4.44,1.7-18.93,3l-72.64-.05Z"/>
    <path class="cls-12" d="M2671.89,299l14.45,32.21s1.68,2.78-.83,4.06c0,0-50,26.9-121.93,2,0,0-1.77-.84-.75-3.29l9.33-29.72S2649.9,309.67,2671.89,299Z"/>
    <path class="cls-21" d="M2576.08,272.45s-18.86,11.94-10.95,27.24c0,0,7.4,14.1,29.55,7.73,0,0,4.15,13.93,26,11.75,0,0,15.5-.07,27.8-15,0,0,10.29-.49,15.26-2.92l-2.33-16.15-6.64-6.13-26.11,4.42-39.81-3.25Z"/>
    <path class="cls-20" d="M2636.39,289.43s-33,25.76-37.91,1.29Z"/>
    <path class="cls-20" d="M2577.25,276.9s6.17,31.54,21.23,13.82Z"/>
    <path class="cls-11" d="M2675.63,308s-9.7,5.47-9.15,11.55c0,0,0,10.48,7.05,7.43,0,0,1.74,4.57,5.21,2.25,0,0,4,3.55,6.16-2.75,0,0,2.51,1.48,4-3.43,0,0,.55-6.39-5.43-4.94,0,0,12.89-1,19.32-12.24,0,0,3.24-10.7-10.28-16L2679,292.29S2671.24,299.88,2675.63,308Z"/>
    <path class="cls-12" d="M2660.33,284.17s-9.95,3.81-1.8,15.45c0,0,9.89,8.56,17.1,8.4,0,0-3.32-6.53,3.39-15.73l-9.81-4.17Z"/>
    <path class="cls-22" d="M2596.63,225.38s21-67.23,49.68-94.22c0,0,9.09-10.25,15.56-1.33,0,0,4.23,5.15,4.25,30.3,0,0-1.86,39.73,9,74.36C2675.13,234.49,2642.3,221.6,2596.63,225.38Z"/>
    <path class="cls-23" d="M2610.74,207.1s-14.57-.88-19.9,6c0,0-5.75,4.73,0,4.49a17.52,17.52,0,0,0,8.68-1.78,100.08,100.08,0,0,1,11.24-2.39s2.4.38,4.46-4C2615.25,209.35,2615.84,207.75,2610.74,207.1Z"/>
    <path class="cls-23" d="M2630.58,208.27s15.62-.41,21.07,7.09c0,0,6,5.27-.2,4.8a18.76,18.76,0,0,1-9.21-2.21,103.67,103.67,0,0,0-11.94-3s-2.58.32-4.62-4.47C2625.68,210.52,2625.11,208.79,2630.58,208.27Z"/>
    <circle class="cls-24" cx="2585.48" cy="251.73" r="1.96"/>
    <path class="cls-24" d="M2649.43,223.18s-9.49,73.4,20.26,66.76c0,0,11.27,11.62,29.24-2.64,0,0,9-8.33-1.48-18.08,0,0,7.9-9.82-14-18.33,0,0-6,1.34-8.33-16.4Z"/>
    <path class="cls-25" d="M2605.43,258.56s-12.69,2.51-10.93,9.68c0,0,.17,8.11,12,9.21,0,0,20,.76,27.92-13,0,0-2.13-1.28-2.16-8.9,0,0-1.77-3.84-11.33-1.37Z"/>
    <path class="cls-26" d="M2624.76,263.32c0,3.6-10.66,6.61-23.89,6.72"/>
    <path class="cls-26" d="M2634,251.86s-5.7,7.6,2.7,14.38"/>
    <ellipse class="cls-27" cx="2610.34" cy="249.69" rx="16.57" ry="12.96" transform="translate(996.96 2316.86) rotate(-57.49)"/>
    <path class="cls-20" d="M2586.26,228.57s-1.15,14.67,13.44,18l10.08-6.13,7.61-3.6,1.82-1.92-1.91-8.5L2595,223.65Z"/>
    <circle cx="2594.15" cy="227.76" r="2.99"/>
    <path class="cls-28" d="M2586.26,228.57s.79-14.11,15.49-15.24c11.72-.9,16.73,5,18.11,10.92-.91,1.11-2.12,2.13-2.26,3.61C2611.45,226.12,2596.05,222.67,2586.26,228.57Z"/>
    <path class="cls-20" d="M2651,234.39s-.88,14-18.75,13.53c0,0-17.17-1.35-14.64-20l15.25-2.91,16.31,6.34Z"/>
    <circle cx="2626.9" cy="229.32" r="2.99"/>
    <path class="cls-28" d="M2651,234.39s2-14-12.23-17.95-20.12,4.56-21.16,11.45C2617.6,227.89,2640.23,224.61,2651,234.39Z"/>
  </g>
</svg>
